<?xml version="1.0" encoding="UTF-8" standalone="no" ?>
<!DOCTYPE svg PUBLIC "-//W3C//DTD SVG 1.1//EN" "http://www.w3.org/Graphics/SVG/1.1/DTD/svg11.dtd">
<svg xmlns="http://www.w3.org/2000/svg" xmlns:xlink="http://www.w3.org/1999/xlink" version="1.1" width="1080" height="1080" viewBox="0 0 1080 1080" xml:space="preserve">
<desc>Created with Fabric.js 5.2.4</desc>
<defs>
</defs>
<rect x="0" y="0" width="100%" height="100%" fill="transparent"></rect>
<g transform="matrix(1 0 0 1 540 540)" id="d81b45d3-0446-4f48-ad03-199040059a8b"  >
</g>
<g transform="matrix(1 0 0 1 540 540)" id="0b93ef42-a3d8-4b37-89d9-f515faf8904d"  >
<rect style="stroke: none; stroke-width: 1; stroke-dasharray: none; stroke-linecap: butt; stroke-dashoffset: 0; stroke-linejoin: miter; stroke-miterlimit: 4; fill: rgb(255,255,255); fill-rule: nonzero; opacity: 1; visibility: hidden;" vector-effect="non-scaling-stroke"  x="-540" y="-540" rx="0" ry="0" width="1080" height="1080" />
</g>
<g transform="matrix(15.09 0 0 15.09 540.47 539.4)" id="ece20be5-6e0c-4c51-bf88-35336f46724e"  >
<circle style="stroke: rgb(0,0,0); stroke-width: 0; stroke-dasharray: none; stroke-linecap: butt; stroke-dashoffset: 0; stroke-linejoin: miter; stroke-miterlimit: 4; fill: rgb(255,255,255); fill-rule: nonzero; opacity: 1;" vector-effect="non-scaling-stroke"  cx="0" cy="0" r="35" />
</g>
<g transform="matrix(1.15 0 0 1.15 541.19 522.82)"  >
<g style="" vector-effect="non-scaling-stroke"   >
		<g transform="matrix(1.56 0 0 1.56 -155.08 -45.93)"  >
<path style="stroke: none; stroke-width: 1; stroke-dasharray: none; stroke-linecap: butt; stroke-dashoffset: 0; stroke-linejoin: miter; stroke-miterlimit: 4; fill: rgb(0,0,0); fill-rule: nonzero; opacity: 1;" vector-effect="non-scaling-stroke"  transform=" translate(-157, -226.85)" d="M 246.597 97.325 C 242.71300000000002 82.32600000000001 229.183 71.85300000000001 213.67600000000002 71.85300000000001 L 97.013 71.85300000000001 C 87.61800000000001 71.85300000000001 79.99700000000001 79.46600000000001 79.99700000000001 88.85400000000001 L 79.99700000000001 249.84900000000002 L 17.007000000000012 249.84900000000002 C 7.613 249.849 0 257.462 0 266.856 L 0 381.854 L 19.181 381.854 C 23.527 353.404 48.155 331.542 77.801 331.542 C 107.43900000000001 331.542 132.068 353.404 136.421 381.854 L 187.179 381.854 C 191.525 353.404 216.153 331.542 245.799 331.542 C 275.438 331.542 300.06600000000003 353.404 304.42 381.854 L 313.994 381.854 L 313.994 249.849 L 286.146 249.849 L 246.597 97.325 z M 127.996 239.852 L 127.996 119.844 L 202.858 119.844 L 233.966 239.853 L 127.996 239.853 z" stroke-linecap="round" />
</g>
		<g transform="matrix(1.56 0 0 1.56 254.46 -30.34)"  >
<polygon style="stroke: none; stroke-width: 1; stroke-dasharray: none; stroke-linecap: butt; stroke-dashoffset: 0; stroke-linejoin: miter; stroke-miterlimit: 4; fill: rgb(0,0,0); fill-rule: nonzero; opacity: 1;" vector-effect="non-scaling-stroke"  points="-55.01,141 -55.01,-167 -93,-167 -93,167 93,167 93,141 " />
</g>
		<g transform="matrix(1.56 0 0 1.56 -278.57 210.57)"  >
<path style="stroke: none; stroke-width: 1; stroke-dasharray: none; stroke-linecap: butt; stroke-dashoffset: 0; stroke-linejoin: miter; stroke-miterlimit: 4; fill: rgb(0,0,0); fill-rule: nonzero; opacity: 1;" vector-effect="non-scaling-stroke"  transform=" translate(-77.8, -390.85)" d="M 77.801 339.546 C 49.468 339.546 26.496000000000002 362.517 26.496000000000002 390.84299999999996 C 26.496000000000002 419.17599999999993 49.468 442.14799999999997 77.801 442.14799999999997 C 106.134 442.14799999999997 129.098 419.176 129.098 390.84299999999996 C 129.098 362.517 106.134 339.546 77.801 339.546 z M 77.801 408.444 C 68.078 408.444 60.199 400.565 60.199 390.84200000000004 C 60.199 381.134 68.078 373.25600000000003 77.801 373.25600000000003 C 87.524 373.25600000000003 95.387 381.13500000000005 95.387 390.84200000000004 C 95.388 400.566 87.524 408.444 77.801 408.444 z" stroke-linecap="round" />
</g>
		<g transform="matrix(1.56 0 0 1.56 -16.07 210.57)"  >
<path style="stroke: none; stroke-width: 1; stroke-dasharray: none; stroke-linecap: butt; stroke-dashoffset: 0; stroke-linejoin: miter; stroke-miterlimit: 4; fill: rgb(0,0,0); fill-rule: nonzero; opacity: 1;" vector-effect="non-scaling-stroke"  transform=" translate(-245.8, -390.85)" d="M 245.8 339.546 C 217.467 339.546 194.496 362.517 194.496 390.84299999999996 C 194.496 419.17599999999993 217.467 442.14799999999997 245.8 442.14799999999997 C 274.134 442.14799999999997 297.097 419.176 297.097 390.84299999999996 C 297.097 362.517 274.134 339.546 245.8 339.546 z M 245.8 408.444 C 236.077 408.444 228.198 400.565 228.198 390.84200000000004 C 228.198 381.134 236.077 373.25600000000003 245.8 373.25600000000003 C 255.524 373.25600000000003 263.386 381.13500000000005 263.386 390.84200000000004 C 263.386 400.566 255.523 408.444 245.8 408.444 z" stroke-linecap="round" />
</g>
</g>
</g>
</svg>